<svg width="265" height="81" viewBox="0 0 265 81" fill="none" xmlns="http://www.w3.org/2000/svg">
<path d="M10.5682 46L1.02273 11.0909H5.31818L12.6136 39.5227H12.9545L20.3864 11.0909H25.1591L32.5909 39.5227H32.9318L40.2273 11.0909H44.5227L34.9773 46H30.6136L22.9091 18.1818H22.6364L14.9318 46H10.5682ZM49.2443 46V19.8182H53.267V46H49.2443ZM51.2898 15.4545C50.5057 15.4545 49.8295 15.1875 49.2614 14.6534C48.7045 14.1193 48.4261 13.4773 48.4261 12.7273C48.4261 11.9773 48.7045 11.3352 49.2614 10.8011C49.8295 10.267 50.5057 10 51.2898 10C52.0739 10 52.7443 10.267 53.3011 10.8011C53.8693 11.3352 54.1534 11.9773 54.1534 12.7273C54.1534 13.4773 53.8693 14.1193 53.3011 14.6534C52.7443 15.1875 52.0739 15.4545 51.2898 15.4545ZM79.1804 25.6818L75.5668 26.7045C75.3395 26.1023 75.0043 25.517 74.5611 24.9489C74.1293 24.3693 73.5384 23.892 72.7884 23.517C72.0384 23.142 71.0781 22.9545 69.9077 22.9545C68.3054 22.9545 66.9702 23.3239 65.902 24.0625C64.8452 24.7898 64.3168 25.7159 64.3168 26.8409C64.3168 27.8409 64.6804 28.6307 65.4077 29.2102C66.1349 29.7898 67.2713 30.2727 68.8168 30.6591L72.7031 31.6136C75.044 32.1818 76.7884 33.0511 77.9361 34.2216C79.0838 35.3807 79.6577 36.875 79.6577 38.7045C79.6577 40.2045 79.2259 41.5455 78.3622 42.7273C77.5099 43.9091 76.3168 44.8409 74.7827 45.5227C73.2486 46.2045 71.4645 46.5455 69.4304 46.5455C66.7599 46.5455 64.5497 45.9659 62.7997 44.8068C61.0497 43.6477 59.9418 41.9545 59.4759 39.7273L63.294 38.7727C63.6577 40.1818 64.3452 41.2386 65.3565 41.9432C66.3793 42.6477 67.7145 43 69.3622 43C71.2372 43 72.7259 42.6023 73.8281 41.8068C74.9418 41 75.4986 40.0341 75.4986 38.9091C75.4986 38 75.1804 37.2386 74.544 36.625C73.9077 36 72.9304 35.5341 71.6122 35.2273L67.2486 34.2045C64.8509 33.6364 63.0895 32.7557 61.9645 31.5625C60.8509 30.358 60.294 28.8523 60.294 27.0455C60.294 25.5682 60.7088 24.2614 61.5384 23.125C62.3793 21.9886 63.5213 21.0966 64.9645 20.4489C66.419 19.8011 68.0668 19.4773 69.9077 19.4773C72.4986 19.4773 74.5327 20.0455 76.0099 21.1818C77.4986 22.3182 78.5554 23.8182 79.1804 25.6818ZM96.6903 46.5455C94.1676 46.5455 91.9915 45.9886 90.1619 44.875C88.3438 43.75 86.9403 42.1818 85.9517 40.1705C84.9744 38.1477 84.4858 35.7955 84.4858 33.1136C84.4858 30.4318 84.9744 28.0682 85.9517 26.0227C86.9403 23.9659 88.3153 22.3636 90.0767 21.2159C91.8494 20.0568 93.9176 19.4773 96.2812 19.4773C97.6449 19.4773 98.9915 19.7045 100.321 20.1591C101.651 20.6136 102.861 21.3523 103.952 22.375C105.043 23.3864 105.912 24.7273 106.56 26.3977C107.207 28.0682 107.531 30.125 107.531 32.5682V34.2727H87.3494V30.7955H103.44C103.44 29.3182 103.145 28 102.554 26.8409C101.974 25.6818 101.145 24.767 100.065 24.0966C98.9972 23.4261 97.7358 23.0909 96.2812 23.0909C94.679 23.0909 93.2926 23.4886 92.1222 24.2841C90.9631 25.0682 90.071 26.0909 89.446 27.3523C88.821 28.6136 88.5085 29.9659 88.5085 31.4091V33.7273C88.5085 35.7045 88.8494 37.3807 89.5312 38.7557C90.2244 40.1193 91.1847 41.1591 92.4119 41.875C93.6392 42.5795 95.0653 42.9318 96.6903 42.9318C97.7472 42.9318 98.7017 42.7841 99.554 42.4886C100.418 42.1818 101.162 41.7273 101.787 41.125C102.412 40.5114 102.895 39.75 103.236 38.8409L107.122 39.9318C106.713 41.25 106.026 42.4091 105.06 43.4091C104.094 44.3977 102.901 45.1705 101.48 45.7273C100.06 46.2727 98.4631 46.5455 96.6903 46.5455ZM114.196 46V11.0909H118.423V28.4091H118.832L134.514 11.0909H140.037L125.378 26.8409L140.037 46H134.923L122.787 29.7727L118.423 34.6818V46H114.196ZM152.668 46.6136C151.009 46.6136 149.503 46.3011 148.151 45.6761C146.798 45.0398 145.724 44.125 144.929 42.9318C144.134 41.7273 143.736 40.2727 143.736 38.5682C143.736 37.0682 144.031 35.8523 144.622 34.9205C145.213 33.9773 146.003 33.2386 146.991 32.7045C147.98 32.1705 149.071 31.7727 150.264 31.5114C151.469 31.2386 152.679 31.0227 153.895 30.8636C155.486 30.6591 156.776 30.5057 157.764 30.4034C158.764 30.2898 159.491 30.1023 159.946 29.8409C160.412 29.5795 160.645 29.125 160.645 28.4773V28.3409C160.645 26.6591 160.185 25.3523 159.264 24.4205C158.355 23.4886 156.974 23.0227 155.122 23.0227C153.202 23.0227 151.696 23.4432 150.605 24.2841C149.514 25.125 148.747 26.0227 148.304 26.9773L144.486 25.6136C145.168 24.0227 146.077 22.7841 147.213 21.8977C148.361 21 149.611 20.375 150.963 20.0227C152.327 19.6591 153.668 19.4773 154.986 19.4773C155.827 19.4773 156.793 19.5795 157.884 19.7841C158.986 19.9773 160.048 20.3807 161.071 20.9943C162.105 21.608 162.963 22.5341 163.645 23.7727C164.327 25.0114 164.668 26.6705 164.668 28.75V46H160.645V42.4545H160.44C160.168 43.0227 159.713 43.6307 159.077 44.2784C158.44 44.9261 157.594 45.4773 156.537 45.9318C155.48 46.3864 154.19 46.6136 152.668 46.6136ZM153.281 43C154.872 43 156.213 42.6875 157.304 42.0625C158.406 41.4375 159.236 40.6307 159.793 39.642C160.361 38.6534 160.645 37.6136 160.645 36.5227V32.8409C160.474 33.0455 160.099 33.233 159.52 33.4034C158.952 33.5625 158.293 33.7045 157.543 33.8295C156.804 33.9432 156.082 34.0455 155.378 34.1364C154.685 34.2159 154.122 34.2841 153.69 34.3409C152.645 34.4773 151.668 34.6989 150.759 35.0057C149.861 35.3011 149.134 35.75 148.577 36.3523C148.031 36.9432 147.759 37.75 147.759 38.7727C147.759 40.1705 148.276 41.2273 149.31 41.9432C150.355 42.6477 151.679 43 153.281 43ZM172.01 55.8182V19.8182H175.896V23.9773H176.374C176.669 23.5227 177.078 22.9432 177.601 22.2386C178.135 21.5227 178.896 20.8864 179.885 20.3295C180.885 19.7614 182.237 19.4773 183.942 19.4773C186.146 19.4773 188.089 20.0284 189.771 21.1307C191.453 22.233 192.766 23.7955 193.709 25.8182C194.652 27.8409 195.124 30.2273 195.124 32.9773C195.124 35.75 194.652 38.1534 193.709 40.1875C192.766 42.2102 191.459 43.7784 189.788 44.892C188.118 45.9943 186.192 46.5455 184.01 46.5455C182.328 46.5455 180.982 46.267 179.97 45.7102C178.959 45.142 178.18 44.5 177.635 43.7841C177.089 43.0568 176.669 42.4545 176.374 41.9773H176.033V55.8182H172.01ZM175.964 32.9091C175.964 34.8864 176.254 36.6307 176.834 38.142C177.413 39.642 178.26 40.8182 179.374 41.6705C180.487 42.5114 181.851 42.9318 183.464 42.9318C185.146 42.9318 186.55 42.4886 187.675 41.6023C188.811 40.7045 189.663 39.5 190.232 37.9886C190.811 36.4659 191.101 34.7727 191.101 32.9091C191.101 31.0682 190.817 29.4091 190.249 27.9318C189.692 26.4432 188.845 25.267 187.709 24.4034C186.584 23.5284 185.169 23.0909 183.464 23.0909C181.828 23.0909 180.453 23.5057 179.339 24.3352C178.226 25.1534 177.385 26.3011 176.817 27.7784C176.249 29.2443 175.964 30.9545 175.964 32.9091ZM201.26 46V19.8182H205.283V46H201.26ZM203.305 15.4545C202.521 15.4545 201.845 15.1875 201.277 14.6534C200.72 14.1193 200.442 13.4773 200.442 12.7273C200.442 11.9773 200.72 11.3352 201.277 10.8011C201.845 10.267 202.521 10 203.305 10C204.089 10 204.76 10.267 205.317 10.8011C205.885 11.3352 206.169 11.9773 206.169 12.7273C206.169 13.4773 205.885 14.1193 205.317 14.6534C204.76 15.1875 204.089 15.4545 203.305 15.4545ZM224.037 19.8182V23.2273H210.469V19.8182H224.037ZM214.423 13.5455H218.446V38.5C218.446 39.6364 218.611 40.4886 218.94 41.0568C219.281 41.6136 219.713 41.9886 220.236 42.1818C220.77 42.3636 221.332 42.4545 221.923 42.4545C222.366 42.4545 222.73 42.4318 223.014 42.3864C223.298 42.3295 223.526 42.2841 223.696 42.25L224.514 45.8636C224.241 45.9659 223.861 46.0682 223.372 46.1705C222.884 46.2841 222.264 46.3409 221.514 46.3409C220.378 46.3409 219.264 46.0966 218.173 45.608C217.094 45.1193 216.196 44.375 215.48 43.375C214.776 42.375 214.423 41.1136 214.423 39.5909V13.5455ZM237.793 46.6136C236.134 46.6136 234.628 46.3011 233.276 45.6761C231.923 45.0398 230.849 44.125 230.054 42.9318C229.259 41.7273 228.861 40.2727 228.861 38.5682C228.861 37.0682 229.156 35.8523 229.747 34.9205C230.338 33.9773 231.128 33.2386 232.116 32.7045C233.105 32.1705 234.196 31.7727 235.389 31.5114C236.594 31.2386 237.804 31.0227 239.02 30.8636C240.611 30.6591 241.901 30.5057 242.889 30.4034C243.889 30.2898 244.616 30.1023 245.071 29.8409C245.537 29.5795 245.77 29.125 245.77 28.4773V28.3409C245.77 26.6591 245.31 25.3523 244.389 24.4205C243.48 23.4886 242.099 23.0227 240.247 23.0227C238.327 23.0227 236.821 23.4432 235.73 24.2841C234.639 25.125 233.872 26.0227 233.429 26.9773L229.611 25.6136C230.293 24.0227 231.202 22.7841 232.338 21.8977C233.486 21 234.736 20.375 236.088 20.0227C237.452 19.6591 238.793 19.4773 240.111 19.4773C240.952 19.4773 241.918 19.5795 243.009 19.7841C244.111 19.9773 245.173 20.3807 246.196 20.9943C247.23 21.608 248.088 22.5341 248.77 23.7727C249.452 25.0114 249.793 26.6705 249.793 28.75V46H245.77V42.4545H245.565C245.293 43.0227 244.838 43.6307 244.202 44.2784C243.565 44.9261 242.719 45.4773 241.662 45.9318C240.605 46.3864 239.315 46.6136 237.793 46.6136ZM238.406 43C239.997 43 241.338 42.6875 242.429 42.0625C243.531 41.4375 244.361 40.6307 244.918 39.642C245.486 38.6534 245.77 37.6136 245.77 36.5227V32.8409C245.599 33.0455 245.224 33.233 244.645 33.4034C244.077 33.5625 243.418 33.7045 242.668 33.8295C241.929 33.9432 241.207 34.0455 240.503 34.1364C239.81 34.2159 239.247 34.2841 238.815 34.3409C237.77 34.4773 236.793 34.6989 235.884 35.0057C234.986 35.3011 234.259 35.75 233.702 36.3523C233.156 36.9432 232.884 37.75 232.884 38.7727C232.884 40.1705 233.401 41.2273 234.435 41.9432C235.48 42.6477 236.804 43 238.406 43ZM261.158 11.0909V46H257.135V11.0909H261.158Z" fill="black"/>
<path d="M102.952 57.744C104.824 57.744 106.24 58.488 107.2 59.976C108.16 61.464 108.64 63.336 108.64 65.592C108.64 67.848 108.08 69.904 106.96 71.76C105.856 73.6 104.576 74.52 103.12 74.52C102.096 74.52 101.344 73.944 100.864 72.792C100.384 71.64 100.072 70 99.928 67.872C99.256 68.816 98.488 69.888 97.624 71.088C95.96 73.392 94.792 74.544 94.12 74.544C93.864 74.544 93.568 74.336 93.232 73.92C92.896 73.504 92.728 72.984 92.728 72.36C92.728 71.72 92.944 69.744 93.376 66.432C93.808 63.104 94.024 60.512 94.024 58.656C94.024 58.064 94.2 57.768 94.552 57.768C94.904 57.768 95.312 57.976 95.776 58.392C96.256 58.808 96.496 59.192 96.496 59.544C96.496 59.88 96.224 61.568 95.68 64.608C95.152 67.648 94.824 70.032 94.696 71.76C95.672 70.112 96.768 68.592 97.984 67.2C99.216 65.792 100.096 65.088 100.624 65.088C101.168 65.088 101.544 66.288 101.752 68.688C101.832 69.584 101.984 70.408 102.208 71.16C102.448 71.912 102.768 72.288 103.168 72.288C104.064 72.288 104.84 71.568 105.496 70.128C106.168 68.672 106.504 67.064 106.504 65.304C106.504 63.352 106.072 61.848 105.208 60.792C104.76 60.232 104.264 59.952 103.72 59.952C103.192 59.952 102.736 59.768 102.352 59.4C101.984 59.032 101.8 58.712 101.8 58.44C101.8 57.976 102.184 57.744 102.952 57.744ZM113.349 56.952C113.349 56.328 113.541 56.016 113.925 56.016C114.229 56.016 114.549 56.256 114.885 56.736C115.237 57.216 115.413 57.68 115.413 58.128C115.413 59.168 115.149 60.944 114.621 63.456C114.109 65.952 113.437 68.448 112.605 70.944C114.205 68.048 115.541 65.96 116.613 64.68C117.701 63.384 118.629 62.736 119.397 62.736C119.813 62.736 120.293 63.096 120.837 63.816C121.397 64.536 121.677 65.256 121.677 65.976C121.677 66.696 121.477 67.776 121.077 69.216C120.085 72.832 119.149 74.64 118.269 74.64C117.917 74.64 117.741 74.4 117.741 73.92C117.741 73.44 117.933 72.632 118.317 71.496C119.165 69.016 119.589 67.344 119.589 66.48C119.589 66.192 119.517 65.952 119.373 65.76C119.229 65.568 119.053 65.472 118.845 65.472C118.637 65.472 118.381 65.584 118.077 65.808C117.773 66.032 117.405 66.424 116.973 66.984C116.429 67.704 115.861 68.512 115.269 69.408C114.693 70.304 114.341 70.848 114.213 71.04C114.101 71.216 113.893 71.544 113.589 72.024C113.301 72.504 113.085 72.864 112.941 73.104C112.797 73.328 112.621 73.576 112.413 73.848C112.045 74.376 111.765 74.64 111.573 74.64C111.381 74.64 111.125 74.464 110.805 74.112C110.485 73.744 110.325 73.44 110.325 73.2C110.325 72.944 110.413 72.472 110.589 71.784C111.389 68.712 111.893 66.608 112.101 65.472C112.933 61.312 113.349 58.472 113.349 56.952ZM130.633 66.816C130.633 66.272 130.545 65.76 130.369 65.28C130.193 64.784 129.937 64.424 129.601 64.2C128.497 64.504 127.545 65.36 126.745 66.768C125.961 68.16 125.569 69.472 125.569 70.704C125.569 71.936 125.873 72.704 126.481 73.008C127.633 72.784 128.609 72 129.409 70.656C130.225 69.296 130.633 68.016 130.633 66.816ZM124.321 67.032C124.881 65.784 125.609 64.76 126.505 63.96C127.417 63.144 128.345 62.736 129.289 62.736C130.249 62.736 131.049 63.144 131.689 63.96C132.329 64.76 132.649 65.744 132.649 66.912C132.649 68.064 132.369 69.248 131.809 70.464C131.249 71.664 130.473 72.664 129.481 73.464C128.505 74.248 127.465 74.64 126.361 74.64C125.545 74.64 124.865 74.264 124.321 73.512C123.777 72.76 123.505 71.808 123.505 70.656C123.505 69.488 123.777 68.28 124.321 67.032ZM146.772 57.696C148.276 57.696 149.876 58.088 151.572 58.872C153.284 59.656 154.756 60.744 155.988 62.136C157.22 63.512 157.836 64.944 157.836 66.432C157.836 67.408 157.156 68.56 155.796 69.888C154.452 71.2 152.892 72.328 151.116 73.272C149.34 74.2 147.868 74.664 146.7 74.664C146.396 74.664 146.044 74.408 145.644 73.896C145.26 73.368 145.068 72.84 145.068 72.312C145.068 71.768 145.532 69.832 146.46 66.504C147.388 63.176 147.892 60.984 147.972 59.928C147.46 59.72 147.052 59.448 146.748 59.112C146.444 58.776 146.292 58.456 146.292 58.152C146.292 57.848 146.452 57.696 146.772 57.696ZM155.628 66.168C155.628 65.176 155.036 64.104 153.852 62.952C152.668 61.784 151.292 60.944 149.724 60.432C149.804 60.72 149.844 61.064 149.844 61.464C149.844 61.848 149.7 62.576 149.412 63.648C149.14 64.72 148.636 66.512 147.9 69.024C147.596 70.08 147.348 71.24 147.156 72.504C148.26 72.36 149.492 71.88 150.852 71.064C152.228 70.232 153.364 69.344 154.26 68.4C155.172 67.456 155.628 66.712 155.628 66.168ZM165.745 62.736C166.465 62.736 167.129 63.104 167.737 63.84C168.345 64.56 168.649 65.216 168.649 65.808C168.649 66.384 168.449 66.976 168.049 67.584C168.241 67.824 168.337 68.032 168.337 68.208C168.337 68.656 168.233 69.424 168.025 70.512C167.833 71.6 167.713 72.312 167.665 72.648C167.633 72.984 167.601 73.256 167.569 73.464C167.537 73.656 167.497 73.848 167.449 74.04C167.385 74.44 167.241 74.64 167.017 74.64C166.729 74.64 166.489 74.392 166.297 73.896C166.121 73.384 166.017 72.728 165.985 71.928C164.561 73.736 163.241 74.64 162.025 74.64C161.289 74.64 160.561 74.328 159.841 73.704C159.137 73.064 158.785 72.408 158.785 71.736C158.785 70.776 159.137 69.592 159.841 68.184C160.545 66.76 161.457 65.496 162.577 64.392C163.697 63.288 164.753 62.736 165.745 62.736ZM166.849 66.96C166.849 65.472 166.553 64.728 165.961 64.728C165.337 64.728 164.609 65.176 163.777 66.072C162.945 66.952 162.241 67.952 161.665 69.072C161.089 70.192 160.801 71.08 160.801 71.736C160.801 72.008 160.913 72.232 161.137 72.408C161.361 72.568 161.625 72.648 161.929 72.648C162.681 72.648 163.529 72.144 164.473 71.136C165.417 70.112 166.073 68.872 166.441 67.416C166.489 67.176 166.625 67.032 166.849 66.984V66.96ZM172.051 65.664L171.979 63.864C171.979 63.112 172.155 62.736 172.507 62.736C172.811 62.736 173.099 62.936 173.371 63.336C173.659 63.72 173.803 64.184 173.803 64.728C173.803 65.256 173.787 65.656 173.755 65.928C175.147 63.816 176.467 62.76 177.715 62.76C178.499 62.76 178.891 62.952 178.891 63.336C178.891 63.528 178.803 63.704 178.627 63.864C178.451 64.024 178.171 64.208 177.787 64.416C176.939 64.784 176.219 65.352 175.627 66.12C175.051 66.872 174.579 67.728 174.211 68.688C173.843 69.648 173.547 70.456 173.323 71.112C173.115 71.768 172.955 72.28 172.843 72.648C172.731 73.016 172.603 73.376 172.459 73.728C172.203 74.368 171.907 74.688 171.571 74.688C171.299 74.688 171.075 74.536 170.899 74.232C170.739 73.912 170.659 73.608 170.659 73.32C170.659 73.016 170.795 72.424 171.067 71.544C171.723 69.528 172.051 67.568 172.051 65.664ZM188.133 66.72C188.133 67.568 187.669 68.264 186.741 68.808C185.829 69.336 184.789 69.6 183.621 69.6C182.469 69.6 181.421 69.472 180.477 69.216C180.253 69.92 180.141 70.552 180.141 71.112C180.141 71.656 180.309 72.08 180.645 72.384C180.997 72.688 181.565 72.84 182.349 72.84C183.149 72.84 183.965 72.704 184.797 72.432C185.645 72.144 186.109 72 186.189 72C186.605 72 186.813 72.16 186.813 72.48C186.813 72.912 186.325 73.384 185.349 73.896C184.373 74.392 183.421 74.64 182.493 74.64C181.245 74.64 180.229 74.272 179.445 73.536C178.661 72.784 178.269 71.84 178.269 70.704C178.269 69.568 178.573 68.384 179.181 67.152C179.789 65.904 180.573 64.856 181.533 64.008C182.493 63.16 183.445 62.736 184.389 62.736C185.333 62.736 186.189 63.184 186.957 64.08C187.741 64.976 188.133 65.856 188.133 66.72ZM184.509 64.632C183.917 64.632 183.301 64.944 182.661 65.568C182.021 66.176 181.477 66.936 181.029 67.848C181.669 67.992 182.397 68.064 183.213 68.064C184.029 68.064 184.741 67.936 185.349 67.68C185.957 67.408 186.261 67.056 186.261 66.624C186.261 66.192 186.061 65.752 185.661 65.304C185.277 64.856 184.893 64.632 184.509 64.632ZM196.225 62.736C196.769 62.736 197.281 63.04 197.761 63.648C198.241 64.24 198.481 64.76 198.481 65.208C198.481 65.48 198.353 65.616 198.097 65.616C197.921 65.616 197.649 65.48 197.281 65.208C196.913 64.92 196.537 64.776 196.153 64.776C195.769 64.776 195.161 65 194.329 65.448C193.513 65.896 193.105 66.368 193.105 66.864C193.105 67.232 193.841 67.864 195.313 68.76C195.873 69.112 196.377 69.568 196.825 70.128C197.289 70.672 197.521 71.264 197.521 71.904C197.521 72.528 197.081 73.144 196.201 73.752C195.337 74.344 194.321 74.64 193.153 74.64C192.001 74.64 190.977 74.36 190.081 73.8C189.201 73.24 188.761 72.712 188.761 72.216C188.761 72.008 188.809 71.848 188.905 71.736C189.017 71.608 189.153 71.544 189.313 71.544C189.473 71.544 189.697 71.648 189.985 71.856C190.849 72.48 191.745 72.792 192.673 72.792C193.617 72.792 194.297 72.688 194.713 72.48C195.129 72.256 195.337 71.968 195.337 71.616C195.337 71.248 195.105 70.864 194.641 70.464C194.177 70.048 193.665 69.68 193.105 69.36C192.561 69.04 192.057 68.648 191.593 68.184C191.129 67.72 190.897 67.248 190.897 66.768C190.897 65.92 191.561 65.04 192.889 64.128C194.233 63.2 195.345 62.736 196.225 62.736ZM220.421 57.744C222.293 57.744 223.709 58.488 224.669 59.976C225.629 61.464 226.109 63.336 226.109 65.592C226.109 67.848 225.549 69.904 224.429 71.76C223.325 73.6 222.045 74.52 220.589 74.52C219.565 74.52 218.813 73.944 218.333 72.792C217.853 71.64 217.541 70 217.397 67.872C216.725 68.816 215.957 69.888 215.093 71.088C213.429 73.392 212.261 74.544 211.589 74.544C211.333 74.544 211.037 74.336 210.701 73.92C210.365 73.504 210.197 72.984 210.197 72.36C210.197 71.72 210.413 69.744 210.845 66.432C211.277 63.104 211.493 60.512 211.493 58.656C211.493 58.064 211.669 57.768 212.021 57.768C212.373 57.768 212.781 57.976 213.245 58.392C213.725 58.808 213.965 59.192 213.965 59.544C213.965 59.88 213.693 61.568 213.149 64.608C212.621 67.648 212.293 70.032 212.165 71.76C213.141 70.112 214.237 68.592 215.453 67.2C216.685 65.792 217.565 65.088 218.093 65.088C218.637 65.088 219.013 66.288 219.221 68.688C219.301 69.584 219.453 70.408 219.677 71.16C219.917 71.912 220.237 72.288 220.637 72.288C221.533 72.288 222.309 71.568 222.965 70.128C223.637 68.672 223.973 67.064 223.973 65.304C223.973 63.352 223.541 61.848 222.677 60.792C222.229 60.232 221.733 59.952 221.189 59.952C220.661 59.952 220.205 59.768 219.821 59.4C219.453 59.032 219.269 58.712 219.269 58.44C219.269 57.976 219.653 57.744 220.421 57.744ZM231.058 59.328C231.058 59.008 231.186 58.704 231.442 58.416C231.698 58.128 231.954 57.984 232.21 57.984C232.482 57.984 232.802 58.312 233.17 58.968C233.538 59.608 233.722 60.144 233.722 60.576C233.722 60.736 233.65 60.88 233.506 61.008C233.362 61.136 233.21 61.2 233.05 61.2C232.666 61.2 232.234 60.968 231.754 60.504C231.29 60.04 231.058 59.648 231.058 59.328ZM230.938 62.736C231.242 62.736 231.53 62.92 231.802 63.288C232.074 63.656 232.21 64.016 232.21 64.368C232.21 64.72 231.978 65.776 231.514 67.536C231.05 69.28 230.466 71.24 229.762 73.416C229.49 74.216 229.146 74.616 228.73 74.616C228.506 74.616 228.314 74.528 228.154 74.352C227.994 74.16 227.914 73.952 227.914 73.728C227.914 73.488 227.97 73.12 228.082 72.624C228.21 72.112 228.386 71.44 228.61 70.608C228.85 69.76 229.034 69.072 229.162 68.544C229.306 68.016 229.45 67.424 229.594 66.768C229.738 66.096 229.85 65.56 229.93 65.16C230.026 64.744 230.13 64.328 230.242 63.912C230.466 63.128 230.698 62.736 230.938 62.736ZM236.057 70.464C237.593 67.856 238.841 65.92 239.801 64.656C240.777 63.376 241.569 62.736 242.177 62.736C242.801 62.736 243.385 63.064 243.929 63.72C244.489 64.376 244.769 65.072 244.769 65.808C244.769 66.96 244.505 68.368 243.977 70.032C243.017 73.104 242.153 74.64 241.385 74.64C241.033 74.64 240.857 74.4 240.857 73.92C240.857 73.584 241.025 72.904 241.361 71.88C241.713 70.84 242.033 69.824 242.321 68.832C242.625 67.824 242.777 67.072 242.777 66.576C242.777 66.064 242.697 65.688 242.537 65.448C242.393 65.208 242.241 65.088 242.081 65.088C241.937 65.088 241.785 65.136 241.625 65.232C241.465 65.328 241.281 65.488 241.073 65.712C240.881 65.936 240.697 66.16 240.521 66.384C240.345 66.592 240.121 66.896 239.849 67.296C239.593 67.696 239.377 68.04 239.201 68.328C239.025 68.6 238.769 69 238.433 69.528C238.097 70.056 237.841 70.456 237.665 70.728C237.489 71 237.257 71.368 236.969 71.832C236.681 72.296 236.449 72.656 236.273 72.912C236.113 73.168 235.929 73.448 235.721 73.752C235.321 74.344 235.001 74.64 234.761 74.64C234.537 74.64 234.273 74.464 233.969 74.112C233.665 73.744 233.513 73.424 233.513 73.152C233.513 73.072 233.569 72.856 233.681 72.504C233.985 71.576 234.321 70.432 234.689 69.072C235.057 67.696 235.257 66.136 235.289 64.392C235.337 63.224 235.505 62.64 235.793 62.64C236.145 62.64 236.497 62.824 236.849 63.192C237.201 63.56 237.377 63.968 237.377 64.416C237.377 64.848 237.241 65.696 236.969 66.96C236.713 68.208 236.409 69.376 236.057 70.464ZM253.366 62.736C253.91 62.736 254.422 63.04 254.902 63.648C255.382 64.24 255.622 64.76 255.622 65.208C255.622 65.48 255.494 65.616 255.238 65.616C255.062 65.616 254.79 65.48 254.422 65.208C254.054 64.92 253.678 64.776 253.294 64.776C252.91 64.776 252.302 65 251.47 65.448C250.654 65.896 250.246 66.368 250.246 66.864C250.246 67.232 250.982 67.864 252.454 68.76C253.014 69.112 253.518 69.568 253.966 70.128C254.43 70.672 254.662 71.264 254.662 71.904C254.662 72.528 254.222 73.144 253.342 73.752C252.478 74.344 251.462 74.64 250.294 74.64C249.142 74.64 248.118 74.36 247.222 73.8C246.342 73.24 245.902 72.712 245.902 72.216C245.902 72.008 245.95 71.848 246.046 71.736C246.158 71.608 246.294 71.544 246.454 71.544C246.614 71.544 246.838 71.648 247.126 71.856C247.99 72.48 248.886 72.792 249.814 72.792C250.758 72.792 251.438 72.688 251.854 72.48C252.27 72.256 252.478 71.968 252.478 71.616C252.478 71.248 252.246 70.864 251.782 70.464C251.318 70.048 250.806 69.68 250.246 69.36C249.702 69.04 249.198 68.648 248.734 68.184C248.27 67.72 248.038 67.248 248.038 66.768C248.038 65.92 248.702 65.04 250.03 64.128C251.374 63.2 252.486 62.736 253.366 62.736ZM258.017 72.072C258.289 71.736 258.561 71.568 258.833 71.568C259.105 71.568 259.433 71.96 259.817 72.744C260.201 73.512 260.393 74.088 260.393 74.472C260.393 74.584 260.313 74.712 260.153 74.856C259.993 75 259.841 75.072 259.697 75.072C259.297 75.072 258.849 74.824 258.353 74.328C257.857 73.816 257.609 73.4 257.609 73.08C257.609 72.744 257.745 72.408 258.017 72.072ZM261.113 55.56C261.417 55.56 261.833 55.752 262.361 56.136C262.889 56.52 263.153 56.824 263.153 57.048C263.153 58.408 262.801 60.8 262.097 64.224C261.409 67.648 260.857 69.36 260.441 69.36C260.185 69.36 259.945 69.232 259.721 68.976C259.497 68.704 259.385 68.424 259.385 68.136C259.369 68.04 259.465 67.464 259.673 66.408C259.897 65.352 260.129 63.872 260.369 61.968C260.609 60.048 260.729 58.12 260.729 56.184C260.729 55.768 260.857 55.56 261.113 55.56Z" fill="#E7BA49"/>
</svg>
